<mxfile host="Electron" agent="Mozilla/5.0 (Windows NT 10.0; Win64; x64) AppleWebKit/537.36 (KHTML, like Gecko) draw.io/24.7.5 Chrome/126.0.6478.183 Electron/31.3.0 Safari/537.36" version="24.7.5">
  <diagram id="C5RBs43oDa-KdzZeNtuy" name="Page-1">
    <mxGraphModel dx="724" dy="996" grid="1" gridSize="10" guides="1" tooltips="1" connect="1" arrows="1" fold="1" page="1" pageScale="1" pageWidth="827" pageHeight="1169" math="0" shadow="0">
      <root>
        <mxCell id="WIyWlLk6GJQsqaUBKTNV-0" />
        <mxCell id="WIyWlLk6GJQsqaUBKTNV-1" parent="WIyWlLk6GJQsqaUBKTNV-0" />
        <mxCell id="CJKZ5IRd0fSEl3AEi2B6-0" value="" style="rounded=0;whiteSpace=wrap;html=1;fontStyle=0;fontSize=12;" parent="WIyWlLk6GJQsqaUBKTNV-1" vertex="1">
          <mxGeometry x="300" y="70" width="330" height="600" as="geometry" />
        </mxCell>
        <mxCell id="CJKZ5IRd0fSEl3AEi2B6-1" value="" style="rounded=0;whiteSpace=wrap;html=1;fontStyle=0;fontSize=12;" parent="WIyWlLk6GJQsqaUBKTNV-1" vertex="1">
          <mxGeometry x="875" y="70" width="335" height="600" as="geometry" />
        </mxCell>
        <mxCell id="CJKZ5IRd0fSEl3AEi2B6-2" value="serial controller driver" style="text;html=1;align=center;verticalAlign=middle;resizable=0;points=[];autosize=1;strokeColor=none;fillColor=none;fontStyle=0;fontSize=12;" parent="WIyWlLk6GJQsqaUBKTNV-1" vertex="1">
          <mxGeometry x="990" y="40" width="140" height="30" as="geometry" />
        </mxCell>
        <mxCell id="CJKZ5IRd0fSEl3AEi2B6-3" value="" style="endArrow=classic;html=1;rounded=0;entryX=0;entryY=0.5;entryDx=0;entryDy=0;fontStyle=0;fontSize=12;" parent="WIyWlLk6GJQsqaUBKTNV-1" target="CJKZ5IRd0fSEl3AEi2B6-12" edge="1">
          <mxGeometry width="50" height="50" relative="1" as="geometry">
            <mxPoint x="640" y="290" as="sourcePoint" />
            <mxPoint x="875.0000000000002" y="252.80000000000018" as="targetPoint" />
          </mxGeometry>
        </mxCell>
        <mxCell id="CJKZ5IRd0fSEl3AEi2B6-5" value="&lt;div style=&quot;font-size: 12px;&quot;&gt;&lt;span style=&quot;box-sizing: inherit; outline-color: inherit; font-size: 12px;&quot;&gt;read buffer&lt;/span&gt;&lt;/div&gt;" style="text;html=1;align=center;verticalAlign=middle;resizable=0;points=[];autosize=1;strokeColor=none;fillColor=none;fontStyle=0;fontSize=12;" parent="WIyWlLk6GJQsqaUBKTNV-1" vertex="1">
          <mxGeometry x="710" y="290" width="80" height="30" as="geometry" />
        </mxCell>
        <mxCell id="CJKZ5IRd0fSEl3AEi2B6-6" value="SerCx2PioReceiveCreate" style="text;html=1;align=center;verticalAlign=middle;resizable=0;points=[];autosize=1;strokeColor=none;fillColor=none;fontStyle=0;fontSize=12;" parent="WIyWlLk6GJQsqaUBKTNV-1" vertex="1">
          <mxGeometry x="660" y="80" width="160" height="30" as="geometry" />
        </mxCell>
        <mxCell id="CJKZ5IRd0fSEl3AEi2B6-9" value="SERCX2_PIO_RECEIVE_CONFIG" style="text;html=1;align=center;verticalAlign=middle;resizable=0;points=[];autosize=0;strokeColor=none;fillColor=none;fontStyle=0;fontSize=12;" parent="WIyWlLk6GJQsqaUBKTNV-1" vertex="1">
          <mxGeometry x="645" y="110" width="210" height="30" as="geometry" />
        </mxCell>
        <mxCell id="CJKZ5IRd0fSEl3AEi2B6-10" value="" style="endArrow=classic;html=1;rounded=0;fontStyle=0;fontSize=12;" parent="WIyWlLk6GJQsqaUBKTNV-1" edge="1">
          <mxGeometry width="50" height="50" relative="1" as="geometry">
            <mxPoint x="860" y="110" as="sourcePoint" />
            <mxPoint x="630" y="110" as="targetPoint" />
          </mxGeometry>
        </mxCell>
        <mxCell id="CJKZ5IRd0fSEl3AEi2B6-12" value="&lt;span style=&quot;text-wrap: nowrap; font-size: 12px;&quot;&gt;EvtSerCx2PioReceiveReadBuffer&lt;/span&gt;" style="rounded=0;whiteSpace=wrap;html=1;fillColor=#d5e8d4;strokeColor=#82b366;fontStyle=0;fontSize=12;" parent="WIyWlLk6GJQsqaUBKTNV-1" vertex="1">
          <mxGeometry x="910" y="280" width="265" height="30" as="geometry" />
        </mxCell>
        <mxCell id="CJKZ5IRd0fSEl3AEi2B6-26" style="rounded=0;orthogonalLoop=1;jettySize=auto;html=1;exitX=0.011;exitY=0.467;exitDx=0;exitDy=0;entryX=1;entryY=0.5;entryDx=0;entryDy=0;exitPerimeter=0;fontStyle=0;fontSize=12;" parent="WIyWlLk6GJQsqaUBKTNV-1" source="CJKZ5IRd0fSEl3AEi2B6-28" target="CJKZ5IRd0fSEl3AEi2B6-24" edge="1">
          <mxGeometry relative="1" as="geometry" />
        </mxCell>
        <mxCell id="CJKZ5IRd0fSEl3AEi2B6-29" value="" style="edgeStyle=orthogonalEdgeStyle;rounded=0;orthogonalLoop=1;jettySize=auto;html=1;fontStyle=0;fontSize=12;" parent="WIyWlLk6GJQsqaUBKTNV-1" source="CJKZ5IRd0fSEl3AEi2B6-13" target="CJKZ5IRd0fSEl3AEi2B6-28" edge="1">
          <mxGeometry relative="1" as="geometry" />
        </mxCell>
        <mxCell id="CJKZ5IRd0fSEl3AEi2B6-13" value="&lt;span style=&quot;text-wrap: nowrap; font-size: 12px;&quot;&gt;EvtSerCx2PioReceiveEnableReadyNotification&lt;/span&gt;" style="rounded=0;whiteSpace=wrap;html=1;fillColor=#d5e8d4;strokeColor=#82b366;fontStyle=0;fontSize=12;" parent="WIyWlLk6GJQsqaUBKTNV-1" vertex="1">
          <mxGeometry x="910" y="370" width="265" height="30" as="geometry" />
        </mxCell>
        <mxCell id="CJKZ5IRd0fSEl3AEi2B6-14" value="&lt;span style=&quot;text-wrap: nowrap; font-size: 12px;&quot;&gt;EvtSerCx2PioReceiveCancelReadyNotification&lt;/span&gt;" style="rounded=0;whiteSpace=wrap;html=1;fillColor=#d5e8d4;strokeColor=#82b366;fontStyle=0;fontSize=12;" parent="WIyWlLk6GJQsqaUBKTNV-1" vertex="1">
          <mxGeometry x="910" y="490" width="265" height="30" as="geometry" />
        </mxCell>
        <mxCell id="CJKZ5IRd0fSEl3AEi2B6-15" value="&lt;span style=&quot;text-wrap: nowrap; font-size: 12px;&quot;&gt;EvtSerCx2PioReceiveInitializeTransaction&lt;/span&gt;" style="rounded=0;whiteSpace=wrap;html=1;fillColor=#dae8fc;strokeColor=#6c8ebf;fontStyle=0;fontSize=12;" parent="WIyWlLk6GJQsqaUBKTNV-1" vertex="1">
          <mxGeometry x="910" y="190" width="265" height="30" as="geometry" />
        </mxCell>
        <mxCell id="CJKZ5IRd0fSEl3AEi2B6-16" value="" style="endArrow=none;dashed=1;html=1;dashPattern=1 3;strokeWidth=2;rounded=0;entryX=0;entryY=0.5;entryDx=0;entryDy=0;fontStyle=0;fontSize=12;" parent="WIyWlLk6GJQsqaUBKTNV-1" target="CJKZ5IRd0fSEl3AEi2B6-15" edge="1">
          <mxGeometry width="50" height="50" relative="1" as="geometry">
            <mxPoint x="650" y="180" as="sourcePoint" />
            <mxPoint x="730" y="190" as="targetPoint" />
          </mxGeometry>
        </mxCell>
        <mxCell id="CJKZ5IRd0fSEl3AEi2B6-17" value="&lt;span style=&quot;text-wrap: nowrap; font-size: 12px;&quot;&gt;EvtSerCx2PioReceiveCleanupTransaction&lt;/span&gt;" style="rounded=0;whiteSpace=wrap;html=1;fillColor=#dae8fc;strokeColor=#6c8ebf;fontStyle=0;fontSize=12;" parent="WIyWlLk6GJQsqaUBKTNV-1" vertex="1">
          <mxGeometry x="910" y="590" width="265" height="30" as="geometry" />
        </mxCell>
        <mxCell id="CJKZ5IRd0fSEl3AEi2B6-18" value="" style="endArrow=none;dashed=1;html=1;dashPattern=1 3;strokeWidth=2;rounded=0;entryX=0;entryY=0.5;entryDx=0;entryDy=0;fontStyle=0;fontSize=12;" parent="WIyWlLk6GJQsqaUBKTNV-1" target="CJKZ5IRd0fSEl3AEi2B6-17" edge="1">
          <mxGeometry width="50" height="50" relative="1" as="geometry">
            <mxPoint x="650" y="520" as="sourcePoint" />
            <mxPoint x="895" y="390" as="targetPoint" />
          </mxGeometry>
        </mxCell>
        <mxCell id="CJKZ5IRd0fSEl3AEi2B6-19" value="&lt;span style=&quot;text-wrap: nowrap; font-size: 12px;&quot;&gt;SerCx2PioReceiveInitializeTransactionComplete&lt;/span&gt;" style="rounded=0;whiteSpace=wrap;html=1;fillColor=#dae8fc;strokeColor=#6c8ebf;fontStyle=0;fontSize=12;" parent="WIyWlLk6GJQsqaUBKTNV-1" vertex="1">
          <mxGeometry x="325" y="210" width="265" height="30" as="geometry" />
        </mxCell>
        <mxCell id="CJKZ5IRd0fSEl3AEi2B6-20" value="" style="endArrow=none;dashed=1;html=1;dashPattern=1 3;strokeWidth=2;rounded=0;exitX=1;exitY=0.5;exitDx=0;exitDy=0;entryX=0;entryY=0.5;entryDx=0;entryDy=0;fontStyle=0;fontSize=12;" parent="WIyWlLk6GJQsqaUBKTNV-1" source="CJKZ5IRd0fSEl3AEi2B6-19" target="CJKZ5IRd0fSEl3AEi2B6-15" edge="1">
          <mxGeometry width="50" height="50" relative="1" as="geometry">
            <mxPoint x="660" y="190" as="sourcePoint" />
            <mxPoint x="860" y="190" as="targetPoint" />
          </mxGeometry>
        </mxCell>
        <mxCell id="CJKZ5IRd0fSEl3AEi2B6-21" value="&lt;span style=&quot;text-wrap: nowrap; font-size: 12px;&quot;&gt;SerCx2PioReceiveInitializeTransactionComplete&lt;/span&gt;" style="rounded=0;whiteSpace=wrap;html=1;fillColor=#dae8fc;strokeColor=#6c8ebf;fontStyle=0;fontSize=12;" parent="WIyWlLk6GJQsqaUBKTNV-1" vertex="1">
          <mxGeometry x="330" y="580" width="265" height="30" as="geometry" />
        </mxCell>
        <mxCell id="CJKZ5IRd0fSEl3AEi2B6-22" value="" style="endArrow=none;dashed=1;html=1;dashPattern=1 3;strokeWidth=2;rounded=0;exitX=1;exitY=0.5;exitDx=0;exitDy=0;entryX=0;entryY=0.5;entryDx=0;entryDy=0;fontStyle=0;fontSize=12;" parent="WIyWlLk6GJQsqaUBKTNV-1" source="CJKZ5IRd0fSEl3AEi2B6-21" target="CJKZ5IRd0fSEl3AEi2B6-17" edge="1">
          <mxGeometry width="50" height="50" relative="1" as="geometry">
            <mxPoint x="660" y="463" as="sourcePoint" />
            <mxPoint x="860" y="463" as="targetPoint" />
          </mxGeometry>
        </mxCell>
        <mxCell id="CJKZ5IRd0fSEl3AEi2B6-23" value="" style="endArrow=classic;html=1;rounded=0;entryX=0;entryY=0.5;entryDx=0;entryDy=0;fontStyle=0;fontSize=12;" parent="WIyWlLk6GJQsqaUBKTNV-1" target="CJKZ5IRd0fSEl3AEi2B6-13" edge="1">
          <mxGeometry width="50" height="50" relative="1" as="geometry">
            <mxPoint x="635" y="341" as="sourcePoint" />
            <mxPoint x="890" y="349" as="targetPoint" />
          </mxGeometry>
        </mxCell>
        <mxCell id="CJKZ5IRd0fSEl3AEi2B6-24" value="&lt;span style=&quot;text-wrap: nowrap; font-size: 12px;&quot;&gt;SerCx2PioReceiveReady&lt;/span&gt;" style="rounded=0;whiteSpace=wrap;html=1;fillColor=#d5e8d4;strokeColor=#82b366;fontStyle=0;fontSize=12;" parent="WIyWlLk6GJQsqaUBKTNV-1" vertex="1">
          <mxGeometry x="340" y="380" width="265" height="30" as="geometry" />
        </mxCell>
        <mxCell id="CJKZ5IRd0fSEl3AEi2B6-28" value="receive FIFO no longer empty" style="text;html=1;align=center;verticalAlign=middle;resizable=0;points=[];autosize=1;strokeColor=none;fillColor=none;fontStyle=0;fontSize=12;" parent="WIyWlLk6GJQsqaUBKTNV-1" vertex="1">
          <mxGeometry x="952.5" y="430" width="180" height="30" as="geometry" />
        </mxCell>
        <mxCell id="CJKZ5IRd0fSEl3AEi2B6-30" value="SerCx2" style="text;html=1;align=center;verticalAlign=middle;resizable=0;points=[];autosize=1;strokeColor=none;fillColor=none;fontStyle=0;fontSize=12;" parent="WIyWlLk6GJQsqaUBKTNV-1" vertex="1">
          <mxGeometry x="432.5" y="40" width="60" height="30" as="geometry" />
        </mxCell>
        <mxCell id="CJKZ5IRd0fSEl3AEi2B6-31" value="" style="endArrow=classic;html=1;rounded=0;entryX=0.909;entryY=0.367;entryDx=0;entryDy=0;entryPerimeter=0;fontStyle=0;fontSize=12;" parent="WIyWlLk6GJQsqaUBKTNV-1" target="CJKZ5IRd0fSEl3AEi2B6-0" edge="1">
          <mxGeometry width="50" height="50" relative="1" as="geometry">
            <mxPoint x="490" y="360" as="sourcePoint" />
            <mxPoint x="540" y="310" as="targetPoint" />
            <Array as="points">
              <mxPoint x="490" y="290" />
            </Array>
          </mxGeometry>
        </mxCell>
        <mxCell id="CJKZ5IRd0fSEl3AEi2B6-32" value="&lt;font style=&quot;font-size: 36px;&quot;&gt;PIO Receive&lt;/font&gt;" style="text;html=1;align=center;verticalAlign=middle;resizable=0;points=[];autosize=1;strokeColor=none;fillColor=none;fontStyle=0;fontSize=36;" parent="WIyWlLk6GJQsqaUBKTNV-1" vertex="1">
          <mxGeometry x="15" y="300" width="230" height="60" as="geometry" />
        </mxCell>
        <mxCell id="CJKZ5IRd0fSEl3AEi2B6-33" value="" style="rounded=0;whiteSpace=wrap;html=1;fontStyle=0;fontSize=12;" parent="WIyWlLk6GJQsqaUBKTNV-1" vertex="1">
          <mxGeometry x="290" y="800" width="330" height="910" as="geometry" />
        </mxCell>
        <mxCell id="CJKZ5IRd0fSEl3AEi2B6-34" value="" style="rounded=0;whiteSpace=wrap;html=1;fontStyle=0;fontSize=12;" parent="WIyWlLk6GJQsqaUBKTNV-1" vertex="1">
          <mxGeometry x="865" y="800" width="335" height="910" as="geometry" />
        </mxCell>
        <mxCell id="CJKZ5IRd0fSEl3AEi2B6-35" value="serial controller driver" style="text;html=1;align=center;verticalAlign=middle;resizable=0;points=[];autosize=1;strokeColor=none;fillColor=none;fontStyle=0;fontSize=12;" parent="WIyWlLk6GJQsqaUBKTNV-1" vertex="1">
          <mxGeometry x="980" y="770" width="140" height="30" as="geometry" />
        </mxCell>
        <mxCell id="CJKZ5IRd0fSEl3AEi2B6-36" value="" style="endArrow=classic;html=1;rounded=0;entryX=0;entryY=0.5;entryDx=0;entryDy=0;fontStyle=0;fontSize=12;" parent="WIyWlLk6GJQsqaUBKTNV-1" target="CJKZ5IRd0fSEl3AEi2B6-42" edge="1">
          <mxGeometry width="50" height="50" relative="1" as="geometry">
            <mxPoint x="630" y="1020" as="sourcePoint" />
            <mxPoint x="865.0000000000002" y="982.8000000000002" as="targetPoint" />
          </mxGeometry>
        </mxCell>
        <mxCell id="CJKZ5IRd0fSEl3AEi2B6-37" value="&lt;div style=&quot;font-size: 12px;&quot;&gt;&lt;span style=&quot;box-sizing: inherit; outline-color: inherit; font-size: 12px;&quot;&gt;write buffer&lt;/span&gt;&lt;/div&gt;" style="text;html=1;align=center;verticalAlign=middle;resizable=0;points=[];autosize=1;strokeColor=none;fillColor=none;fontStyle=0;fontSize=12;" parent="WIyWlLk6GJQsqaUBKTNV-1" vertex="1">
          <mxGeometry x="700" y="1020" width="80" height="30" as="geometry" />
        </mxCell>
        <mxCell id="CJKZ5IRd0fSEl3AEi2B6-38" value="SerCx2PioTransmitCreate" style="text;html=1;align=center;verticalAlign=middle;resizable=0;points=[];autosize=1;strokeColor=none;fillColor=none;fontStyle=0;fontSize=12;" parent="WIyWlLk6GJQsqaUBKTNV-1" vertex="1">
          <mxGeometry x="650" y="810" width="160" height="30" as="geometry" />
        </mxCell>
        <mxCell id="CJKZ5IRd0fSEl3AEi2B6-39" value="SERCX2_PIO_TRANSMIT_CONFIG" style="text;html=1;align=center;verticalAlign=middle;resizable=0;points=[];autosize=0;strokeColor=none;fillColor=none;fontStyle=0;fontSize=12;" parent="WIyWlLk6GJQsqaUBKTNV-1" vertex="1">
          <mxGeometry x="635" y="840" width="210" height="30" as="geometry" />
        </mxCell>
        <mxCell id="CJKZ5IRd0fSEl3AEi2B6-40" value="" style="endArrow=classic;html=1;rounded=0;fontStyle=0;fontSize=12;" parent="WIyWlLk6GJQsqaUBKTNV-1" edge="1">
          <mxGeometry width="50" height="50" relative="1" as="geometry">
            <mxPoint x="850" y="840" as="sourcePoint" />
            <mxPoint x="620" y="840" as="targetPoint" />
          </mxGeometry>
        </mxCell>
        <mxCell id="CJKZ5IRd0fSEl3AEi2B6-42" value="&lt;span style=&quot;text-wrap: nowrap; font-size: 12px;&quot;&gt;EvtSerCx2PioTransmitWriteBuffer&lt;/span&gt;" style="rounded=0;whiteSpace=wrap;html=1;fillColor=#d5e8d4;strokeColor=#82b366;fontStyle=0;fontSize=12;" parent="WIyWlLk6GJQsqaUBKTNV-1" vertex="1">
          <mxGeometry x="900" y="1010" width="265" height="30" as="geometry" />
        </mxCell>
        <mxCell id="CJKZ5IRd0fSEl3AEi2B6-43" style="rounded=0;orthogonalLoop=1;jettySize=auto;html=1;exitX=0.011;exitY=0.467;exitDx=0;exitDy=0;entryX=1;entryY=0.5;entryDx=0;entryDy=0;exitPerimeter=0;fontStyle=0;fontSize=12;" parent="WIyWlLk6GJQsqaUBKTNV-1" source="CJKZ5IRd0fSEl3AEi2B6-57" target="CJKZ5IRd0fSEl3AEi2B6-56" edge="1">
          <mxGeometry relative="1" as="geometry" />
        </mxCell>
        <mxCell id="CJKZ5IRd0fSEl3AEi2B6-44" value="" style="edgeStyle=orthogonalEdgeStyle;rounded=0;orthogonalLoop=1;jettySize=auto;html=1;fontStyle=0;fontSize=12;" parent="WIyWlLk6GJQsqaUBKTNV-1" source="CJKZ5IRd0fSEl3AEi2B6-45" target="CJKZ5IRd0fSEl3AEi2B6-57" edge="1">
          <mxGeometry relative="1" as="geometry" />
        </mxCell>
        <mxCell id="CJKZ5IRd0fSEl3AEi2B6-45" value="&lt;span style=&quot;text-wrap: nowrap; font-size: 12px;&quot;&gt;EvtSerCx2PioTransmitEnableReadyNotification&lt;/span&gt;" style="rounded=0;whiteSpace=wrap;html=1;fillColor=#d5e8d4;strokeColor=#82b366;fontStyle=0;fontSize=12;" parent="WIyWlLk6GJQsqaUBKTNV-1" vertex="1">
          <mxGeometry x="900" y="1100" width="265" height="30" as="geometry" />
        </mxCell>
        <mxCell id="CJKZ5IRd0fSEl3AEi2B6-46" value="&lt;span style=&quot;text-wrap: nowrap; font-size: 12px;&quot;&gt;EvtSerCx2PioTransmitCancelReadyNotification&lt;/span&gt;" style="rounded=0;whiteSpace=wrap;html=1;fillColor=#d5e8d4;strokeColor=#82b366;fontStyle=0;fontSize=12;" parent="WIyWlLk6GJQsqaUBKTNV-1" vertex="1">
          <mxGeometry x="900" y="1220" width="265" height="30" as="geometry" />
        </mxCell>
        <mxCell id="CJKZ5IRd0fSEl3AEi2B6-47" value="&lt;span style=&quot;text-wrap: nowrap; font-size: 12px;&quot;&gt;EvtSerCx2PioTransmitInitializeTransaction&lt;/span&gt;" style="rounded=0;whiteSpace=wrap;html=1;fillColor=#dae8fc;strokeColor=#6c8ebf;fontStyle=0;fontSize=12;" parent="WIyWlLk6GJQsqaUBKTNV-1" vertex="1">
          <mxGeometry x="900" y="920" width="265" height="30" as="geometry" />
        </mxCell>
        <mxCell id="CJKZ5IRd0fSEl3AEi2B6-48" value="" style="endArrow=none;dashed=1;html=1;dashPattern=1 3;strokeWidth=2;rounded=0;entryX=0;entryY=0.5;entryDx=0;entryDy=0;fontStyle=0;fontSize=12;" parent="WIyWlLk6GJQsqaUBKTNV-1" target="CJKZ5IRd0fSEl3AEi2B6-47" edge="1">
          <mxGeometry width="50" height="50" relative="1" as="geometry">
            <mxPoint x="640" y="910" as="sourcePoint" />
            <mxPoint x="720" y="920" as="targetPoint" />
          </mxGeometry>
        </mxCell>
        <mxCell id="CJKZ5IRd0fSEl3AEi2B6-49" value="&lt;span style=&quot;text-wrap: nowrap; font-size: 12px;&quot;&gt;EvtSerCx2PioTransmitCleanupTransaction&lt;/span&gt;" style="rounded=0;whiteSpace=wrap;html=1;fillColor=#dae8fc;strokeColor=#6c8ebf;fontStyle=0;fontSize=12;" parent="WIyWlLk6GJQsqaUBKTNV-1" vertex="1">
          <mxGeometry x="900" y="1607" width="265" height="30" as="geometry" />
        </mxCell>
        <mxCell id="CJKZ5IRd0fSEl3AEi2B6-50" value="" style="endArrow=none;dashed=1;html=1;dashPattern=1 3;strokeWidth=2;rounded=0;entryX=0;entryY=0.5;entryDx=0;entryDy=0;fontStyle=0;fontSize=12;" parent="WIyWlLk6GJQsqaUBKTNV-1" target="CJKZ5IRd0fSEl3AEi2B6-49" edge="1">
          <mxGeometry width="50" height="50" relative="1" as="geometry">
            <mxPoint x="640" y="1570" as="sourcePoint" />
            <mxPoint x="885" y="1407" as="targetPoint" />
          </mxGeometry>
        </mxCell>
        <mxCell id="CJKZ5IRd0fSEl3AEi2B6-51" value="&lt;span style=&quot;text-wrap: nowrap; font-size: 12px;&quot;&gt;SerCx2PioTransmitInitializeTransactionComplete&lt;/span&gt;" style="rounded=0;whiteSpace=wrap;html=1;fillColor=#dae8fc;strokeColor=#6c8ebf;fontStyle=0;fontSize=12;" parent="WIyWlLk6GJQsqaUBKTNV-1" vertex="1">
          <mxGeometry x="325" y="940" width="265" height="30" as="geometry" />
        </mxCell>
        <mxCell id="CJKZ5IRd0fSEl3AEi2B6-52" value="" style="endArrow=none;dashed=1;html=1;dashPattern=1 3;strokeWidth=2;rounded=0;exitX=1;exitY=0.5;exitDx=0;exitDy=0;entryX=0;entryY=0.5;entryDx=0;entryDy=0;fontStyle=0;fontSize=12;" parent="WIyWlLk6GJQsqaUBKTNV-1" source="CJKZ5IRd0fSEl3AEi2B6-51" target="CJKZ5IRd0fSEl3AEi2B6-47" edge="1">
          <mxGeometry width="50" height="50" relative="1" as="geometry">
            <mxPoint x="650" y="920" as="sourcePoint" />
            <mxPoint x="850" y="920" as="targetPoint" />
          </mxGeometry>
        </mxCell>
        <mxCell id="CJKZ5IRd0fSEl3AEi2B6-53" value="&lt;span style=&quot;text-wrap: nowrap; font-size: 12px;&quot;&gt;SerCx2Pio&lt;/span&gt;&lt;span style=&quot;text-wrap: nowrap;&quot;&gt;Transmit&lt;/span&gt;&lt;span style=&quot;text-wrap: nowrap; font-size: 12px;&quot;&gt;InitializeTransactionComplete&lt;/span&gt;" style="rounded=0;whiteSpace=wrap;html=1;fillColor=#dae8fc;strokeColor=#6c8ebf;fontStyle=0;fontSize=12;" parent="WIyWlLk6GJQsqaUBKTNV-1" vertex="1">
          <mxGeometry x="320" y="1597" width="265" height="30" as="geometry" />
        </mxCell>
        <mxCell id="CJKZ5IRd0fSEl3AEi2B6-54" value="" style="endArrow=none;dashed=1;html=1;dashPattern=1 3;strokeWidth=2;rounded=0;exitX=1;exitY=0.5;exitDx=0;exitDy=0;entryX=0;entryY=0.5;entryDx=0;entryDy=0;fontStyle=0;fontSize=12;" parent="WIyWlLk6GJQsqaUBKTNV-1" source="CJKZ5IRd0fSEl3AEi2B6-53" target="CJKZ5IRd0fSEl3AEi2B6-49" edge="1">
          <mxGeometry width="50" height="50" relative="1" as="geometry">
            <mxPoint x="650" y="1480" as="sourcePoint" />
            <mxPoint x="850" y="1480" as="targetPoint" />
          </mxGeometry>
        </mxCell>
        <mxCell id="CJKZ5IRd0fSEl3AEi2B6-55" value="" style="endArrow=classic;html=1;rounded=0;entryX=0;entryY=0.5;entryDx=0;entryDy=0;fontStyle=0;fontSize=12;exitX=0.995;exitY=0.522;exitDx=0;exitDy=0;exitPerimeter=0;" parent="WIyWlLk6GJQsqaUBKTNV-1" target="CJKZ5IRd0fSEl3AEi2B6-45" edge="1" source="J14_GXVmGQ0ArYSJ1UOR-16">
          <mxGeometry width="50" height="50" relative="1" as="geometry">
            <mxPoint x="625" y="1071" as="sourcePoint" />
            <mxPoint x="880" y="1079" as="targetPoint" />
          </mxGeometry>
        </mxCell>
        <mxCell id="CJKZ5IRd0fSEl3AEi2B6-56" value="&lt;span style=&quot;text-wrap: nowrap; font-size: 12px;&quot;&gt;SerCx2Pio&lt;/span&gt;&lt;span style=&quot;text-wrap: nowrap;&quot;&gt;Transmit&lt;/span&gt;&lt;span style=&quot;text-wrap: nowrap; font-size: 12px;&quot;&gt;Ready&lt;/span&gt;" style="rounded=0;whiteSpace=wrap;html=1;fillColor=#d5e8d4;strokeColor=#82b366;fontStyle=0;fontSize=12;" parent="WIyWlLk6GJQsqaUBKTNV-1" vertex="1">
          <mxGeometry x="330" y="1110" width="265" height="30" as="geometry" />
        </mxCell>
        <mxCell id="CJKZ5IRd0fSEl3AEi2B6-57" value="tx FIFO ready accept data" style="text;html=1;align=center;verticalAlign=middle;resizable=0;points=[];autosize=1;strokeColor=none;fillColor=none;fontStyle=0;fontSize=12;" parent="WIyWlLk6GJQsqaUBKTNV-1" vertex="1">
          <mxGeometry x="952.5" y="1160" width="160" height="30" as="geometry" />
        </mxCell>
        <mxCell id="CJKZ5IRd0fSEl3AEi2B6-58" value="SerCx2" style="text;html=1;align=center;verticalAlign=middle;resizable=0;points=[];autosize=1;strokeColor=none;fillColor=none;fontStyle=0;fontSize=12;" parent="WIyWlLk6GJQsqaUBKTNV-1" vertex="1">
          <mxGeometry x="422.5" y="770" width="60" height="30" as="geometry" />
        </mxCell>
        <mxCell id="CJKZ5IRd0fSEl3AEi2B6-59" value="" style="endArrow=classic;html=1;rounded=0;entryX=0.909;entryY=0.242;entryDx=0;entryDy=0;entryPerimeter=0;fontStyle=0;fontSize=12;exitX=0.152;exitY=0.33;exitDx=0;exitDy=0;exitPerimeter=0;" parent="WIyWlLk6GJQsqaUBKTNV-1" target="CJKZ5IRd0fSEl3AEi2B6-33" edge="1" source="CJKZ5IRd0fSEl3AEi2B6-33">
          <mxGeometry width="50" height="50" relative="1" as="geometry">
            <mxPoint x="480" y="1090" as="sourcePoint" />
            <mxPoint x="530" y="1040" as="targetPoint" />
            <Array as="points">
              <mxPoint x="340" y="1020" />
            </Array>
          </mxGeometry>
        </mxCell>
        <mxCell id="CJKZ5IRd0fSEl3AEi2B6-60" value="&lt;font style=&quot;font-size: 36px;&quot;&gt;PIO Transmit&lt;/font&gt;" style="text;html=1;align=center;verticalAlign=middle;resizable=0;points=[];autosize=1;strokeColor=none;fillColor=none;fontStyle=0;fontSize=36;" parent="WIyWlLk6GJQsqaUBKTNV-1" vertex="1">
          <mxGeometry x="5" y="1030" width="230" height="60" as="geometry" />
        </mxCell>
        <mxCell id="J14_GXVmGQ0ArYSJ1UOR-0" value="&lt;span style=&quot;text-wrap: nowrap;&quot;&gt;EvtSerCx2PioTransmitPurgeFifo&lt;/span&gt;" style="rounded=0;whiteSpace=wrap;html=1;fillColor=#eeeeee;strokeColor=#36393d;fontStyle=0;fontSize=12;" vertex="1" parent="WIyWlLk6GJQsqaUBKTNV-1">
          <mxGeometry x="900" y="1440" width="265" height="30" as="geometry" />
        </mxCell>
        <mxCell id="J14_GXVmGQ0ArYSJ1UOR-1" value="&lt;span style=&quot;text-wrap: nowrap;&quot;&gt;EvtSerCx2PioTransmitCancelDrainFifo&lt;/span&gt;" style="rounded=0;whiteSpace=wrap;html=1;fillColor=#eeeeee;strokeColor=#36393d;fontStyle=0;fontSize=12;" vertex="1" parent="WIyWlLk6GJQsqaUBKTNV-1">
          <mxGeometry x="900" y="1370" width="265" height="30" as="geometry" />
        </mxCell>
        <mxCell id="J14_GXVmGQ0ArYSJ1UOR-2" value="&lt;span style=&quot;text-wrap: nowrap;&quot;&gt;EvtSerCx2PioTransmitDrainFifo&lt;/span&gt;" style="rounded=0;whiteSpace=wrap;html=1;fillColor=#eeeeee;strokeColor=#36393d;fontStyle=0;fontSize=12;" vertex="1" parent="WIyWlLk6GJQsqaUBKTNV-1">
          <mxGeometry x="900" y="1305" width="265" height="30" as="geometry" />
        </mxCell>
        <mxCell id="J14_GXVmGQ0ArYSJ1UOR-3" value="&lt;span style=&quot;text-wrap: nowrap;&quot;&gt;SerCx2PioTransmitPurgeFifoComplete&lt;/span&gt;" style="rounded=0;whiteSpace=wrap;html=1;fillColor=#eeeeee;strokeColor=#36393d;fontStyle=0;fontSize=12;" vertex="1" parent="WIyWlLk6GJQsqaUBKTNV-1">
          <mxGeometry x="330" y="1510" width="265" height="30" as="geometry" />
        </mxCell>
        <mxCell id="J14_GXVmGQ0ArYSJ1UOR-4" value="&lt;span style=&quot;text-wrap: nowrap;&quot;&gt;SerCx2PioTransmitDrainFifoComplete&lt;/span&gt;" style="rounded=0;whiteSpace=wrap;html=1;fillColor=#eeeeee;strokeColor=#36393d;fontStyle=0;fontSize=12;" vertex="1" parent="WIyWlLk6GJQsqaUBKTNV-1">
          <mxGeometry x="340" y="1305" width="265" height="30" as="geometry" />
        </mxCell>
        <mxCell id="J14_GXVmGQ0ArYSJ1UOR-12" value="" style="edgeStyle=orthogonalEdgeStyle;rounded=0;orthogonalLoop=1;jettySize=auto;html=1;entryX=-0.004;entryY=0.517;entryDx=0;entryDy=0;entryPerimeter=0;exitX=0.001;exitY=0.433;exitDx=0;exitDy=0;exitPerimeter=0;" edge="1" parent="WIyWlLk6GJQsqaUBKTNV-1" source="J14_GXVmGQ0ArYSJ1UOR-5" target="J14_GXVmGQ0ArYSJ1UOR-9">
          <mxGeometry relative="1" as="geometry">
            <mxPoint x="245" y="1265" as="targetPoint" />
            <Array as="points">
              <mxPoint x="320" y="1262" />
              <mxPoint x="320" y="1396" />
            </Array>
          </mxGeometry>
        </mxCell>
        <mxCell id="J14_GXVmGQ0ArYSJ1UOR-5" value="after the last transmit done,&lt;div&gt;then check if data transmitted&lt;/div&gt;" style="text;html=1;align=center;verticalAlign=middle;resizable=0;points=[];autosize=1;strokeColor=none;fillColor=none;" vertex="1" parent="WIyWlLk6GJQsqaUBKTNV-1">
          <mxGeometry x="375" y="1245" width="180" height="40" as="geometry" />
        </mxCell>
        <mxCell id="J14_GXVmGQ0ArYSJ1UOR-6" value="" style="endArrow=none;dashed=1;html=1;dashPattern=1 3;strokeWidth=2;rounded=0;entryX=0;entryY=0.5;entryDx=0;entryDy=0;fontStyle=0;fontSize=12;exitX=0.981;exitY=0.606;exitDx=0;exitDy=0;exitPerimeter=0;" edge="1" parent="WIyWlLk6GJQsqaUBKTNV-1" source="J14_GXVmGQ0ArYSJ1UOR-5" target="J14_GXVmGQ0ArYSJ1UOR-2">
          <mxGeometry width="50" height="50" relative="1" as="geometry">
            <mxPoint x="580" y="1270" as="sourcePoint" />
            <mxPoint x="840" y="1295" as="targetPoint" />
          </mxGeometry>
        </mxCell>
        <mxCell id="J14_GXVmGQ0ArYSJ1UOR-7" value="check if transmit FIFO empty" style="text;html=1;align=center;verticalAlign=middle;resizable=0;points=[];autosize=1;strokeColor=none;fillColor=none;" vertex="1" parent="WIyWlLk6GJQsqaUBKTNV-1">
          <mxGeometry x="1165" y="1305" width="180" height="30" as="geometry" />
        </mxCell>
        <mxCell id="J14_GXVmGQ0ArYSJ1UOR-8" value="" style="endArrow=none;dashed=1;html=1;dashPattern=1 3;strokeWidth=2;rounded=0;entryX=0;entryY=0.5;entryDx=0;entryDy=0;fontStyle=0;fontSize=12;exitX=1;exitY=0.5;exitDx=0;exitDy=0;" edge="1" parent="WIyWlLk6GJQsqaUBKTNV-1" source="J14_GXVmGQ0ArYSJ1UOR-4" target="J14_GXVmGQ0ArYSJ1UOR-2">
          <mxGeometry width="50" height="50" relative="1" as="geometry">
            <mxPoint x="557" y="1278" as="sourcePoint" />
            <mxPoint x="910" y="1330" as="targetPoint" />
          </mxGeometry>
        </mxCell>
        <mxCell id="J14_GXVmGQ0ArYSJ1UOR-9" value="write op timeout, or is canceled,&lt;div&gt;after FIFO drain sent before&lt;/div&gt;" style="text;html=1;align=center;verticalAlign=middle;resizable=0;points=[];autosize=1;strokeColor=none;fillColor=none;" vertex="1" parent="WIyWlLk6GJQsqaUBKTNV-1">
          <mxGeometry x="360" y="1375" width="190" height="40" as="geometry" />
        </mxCell>
        <mxCell id="J14_GXVmGQ0ArYSJ1UOR-10" value="" style="endArrow=none;dashed=1;html=1;dashPattern=1 3;strokeWidth=2;rounded=0;entryX=0;entryY=0.5;entryDx=0;entryDy=0;fontStyle=0;fontSize=12;exitX=1.005;exitY=0.578;exitDx=0;exitDy=0;exitPerimeter=0;" edge="1" parent="WIyWlLk6GJQsqaUBKTNV-1" source="J14_GXVmGQ0ArYSJ1UOR-9" target="J14_GXVmGQ0ArYSJ1UOR-1">
          <mxGeometry width="50" height="50" relative="1" as="geometry">
            <mxPoint x="562" y="1279" as="sourcePoint" />
            <mxPoint x="910" y="1330" as="targetPoint" />
          </mxGeometry>
        </mxCell>
        <mxCell id="J14_GXVmGQ0ArYSJ1UOR-13" value="write canceled or timeout" style="text;html=1;align=center;verticalAlign=middle;resizable=0;points=[];autosize=1;strokeColor=none;fillColor=none;" vertex="1" parent="WIyWlLk6GJQsqaUBKTNV-1">
          <mxGeometry x="372.5" y="1440" width="160" height="30" as="geometry" />
        </mxCell>
        <mxCell id="J14_GXVmGQ0ArYSJ1UOR-14" value="" style="endArrow=none;dashed=1;html=1;dashPattern=1 3;strokeWidth=2;rounded=0;entryX=0;entryY=0.5;entryDx=0;entryDy=0;fontStyle=0;fontSize=12;exitX=1.022;exitY=0.494;exitDx=0;exitDy=0;exitPerimeter=0;" edge="1" parent="WIyWlLk6GJQsqaUBKTNV-1" source="J14_GXVmGQ0ArYSJ1UOR-13" target="J14_GXVmGQ0ArYSJ1UOR-0">
          <mxGeometry width="50" height="50" relative="1" as="geometry">
            <mxPoint x="561" y="1408" as="sourcePoint" />
            <mxPoint x="910" y="1395" as="targetPoint" />
          </mxGeometry>
        </mxCell>
        <mxCell id="J14_GXVmGQ0ArYSJ1UOR-15" value="" style="endArrow=none;dashed=1;html=1;dashPattern=1 3;strokeWidth=2;rounded=0;entryX=0;entryY=0.5;entryDx=0;entryDy=0;fontStyle=0;fontSize=12;exitX=1;exitY=0.5;exitDx=0;exitDy=0;" edge="1" parent="WIyWlLk6GJQsqaUBKTNV-1" source="J14_GXVmGQ0ArYSJ1UOR-3" target="J14_GXVmGQ0ArYSJ1UOR-0">
          <mxGeometry width="50" height="50" relative="1" as="geometry">
            <mxPoint x="546" y="1465" as="sourcePoint" />
            <mxPoint x="910" y="1465" as="targetPoint" />
          </mxGeometry>
        </mxCell>
        <mxCell id="J14_GXVmGQ0ArYSJ1UOR-16" value="mo more FIFO space" style="text;html=1;align=center;verticalAlign=middle;resizable=0;points=[];autosize=1;strokeColor=none;fillColor=none;" vertex="1" parent="WIyWlLk6GJQsqaUBKTNV-1">
          <mxGeometry x="465" y="1050" width="140" height="30" as="geometry" />
        </mxCell>
      </root>
    </mxGraphModel>
  </diagram>
</mxfile>
